<?xml version="1.0" encoding="iso-8859-1"?>
<!-- Generator: Adobe Illustrator 19.0.0, SVG Export Plug-In . SVG Version: 6.00 Build 0)  -->
<svg version="1.1" id="Capa_1" xmlns="http://www.w3.org/2000/svg" xmlns:xlink="http://www.w3.org/1999/xlink" x="0px" y="0px"
	 viewBox="0 0 512.001 512.001" style="enable-background:new 0 0 512.001 512.001;" xml:space="preserve">
<g>
	<g>
		<g>
			<path d="M501.73,280.45c-10.114-17.518-26.446-30.049-45.984-35.284c-19.539-5.237-39.946-2.55-57.465,7.565l-14.85,8.574
				c0.688-5.772,1.053-11.642,1.053-17.596c0-15.041-2.266-29.563-6.465-43.247c-0.097-0.386-0.211-0.766-0.353-1.137
				c-14.454-45.776-50.647-81.987-96.412-96.466c-0.434-0.17-0.879-0.305-1.333-0.414c-12.097-3.701-24.849-5.883-38.034-6.333
				V36.22C241.886,16.247,225.637,0,205.667,0H72.785h-9.124C56.564,0,49.607,2.356,43.96,6.578
				c-0.869,0.649-1.706,1.343-2.509,2.079c-0.401,0.368-0.794,0.747-1.177,1.136L9.529,41.013c-0.017,0.017-0.032,0.036-0.049,0.053
				c-0.447,0.456-0.879,0.927-1.298,1.409c-0.086,0.099-0.17,0.199-0.255,0.299c-0.4,0.468-0.78,0.95-1.151,1.437
				c-0.005,0.006-0.009,0.012-0.013,0.018c-4.319,5.676-6.671,12.568-6.671,19.815V275.12c0,19.972,16.248,36.22,36.219,36.22
				h69.204c16.046,31.022,42.771,55.658,75.277,69.027c-25.647,23.451-32.558,62.427-14.48,93.738
				c10.114,17.518,26.444,30.049,45.982,35.284c6.524,1.749,13.144,2.613,19.723,2.613c13.121,0,26.073-3.441,37.741-10.179
				l89.57-51.714c4.317-2.493,8.286-5.358,11.911-8.518c4.596-1.585,9.034-3.574,13.201-5.98l89.571-51.714
				c17.518-10.114,30.049-26.444,35.284-45.982C514.531,318.376,511.844,297.969,501.73,280.45z M364.485,243.71
				c0,10.579-1.302,20.857-3.738,30.693l-19.95,11.518c-8.226,3.472-16.597,6.498-25.076,9.109
				c2.461-13.744,3.934-27.659,4.372-41.593c0.642-20.441-0.937-40.978-4.635-61.129c10.763,3.301,21.357,7.27,31.696,11.959
				l12.829,5.819C362.912,220.804,364.485,232.076,364.485,243.71z M349.303,183.375c-12.598-5.36-25.593-9.814-38.843-13.333
				c-3.521-13.249-7.975-26.246-13.335-38.844C319.211,143.087,337.413,161.289,349.303,183.375z M236.791,116.015
				c1.707,0,3.404,0.044,5.096,0.11c9.833,0.389,19.383,1.893,28.53,4.392l5.815,12.818c4.691,10.343,8.661,20.94,11.964,31.708
				c-15.283-2.805-30.79-4.385-46.308-4.708c-4.945-0.103-9.892-0.085-14.832,0.069c-1.723,0.054-3.445,0.13-5.167,0.215
				c-12.224,0.607-24.419,2.004-36.482,4.167c3.321-10.709,7.305-21.214,11.945-31.443l5.818-12.826
				c6.073-1.66,12.325-2.88,18.719-3.627C226.778,116.319,231.75,116.015,236.791,116.015z M54.524,23.825
				c0.287-0.292,0.589-0.566,0.902-0.827c0.105-0.088,0.217-0.165,0.324-0.249c0.213-0.167,0.426-0.333,0.649-0.485
				c0.134-0.091,0.273-0.173,0.41-0.26c0.207-0.13,0.414-0.26,0.627-0.378c0.15-0.083,0.303-0.157,0.456-0.234
				c0.21-0.105,0.42-0.209,0.636-0.303c0.16-0.07,0.323-0.134,0.486-0.197c0.216-0.084,0.433-0.164,0.653-0.237
				c0.167-0.055,0.336-0.106,0.505-0.154c0.223-0.063,0.447-0.121,0.674-0.172c0.17-0.039,0.341-0.076,0.513-0.107
				c0.232-0.043,0.466-0.077,0.701-0.107c0.169-0.021,0.338-0.044,0.508-0.059c0.072-0.006,0.145-0.006,0.218-0.011v26.527
				c0,0.98-0.797,1.777-1.777,1.777H30.375L54.524,23.825z M95.607,287.107c0.061,0.229,0.131,0.456,0.209,0.681
				c0.373,1.19,0.762,2.374,1.164,3.551H36.311v0.001c-8.944,0-16.219-7.276-16.219-16.22V68.347h40.916
				c12.008,0,21.776-9.77,21.776-21.776V19.999h122.883c8.944,0,16.219,7.276,16.219,16.22v60.545
				c-9.751,0.981-19.222,2.919-28.325,5.711c-0.395,0.098-0.784,0.216-1.163,0.361c-45.803,14.465-82.029,50.695-96.488,96.501
				c-0.146,0.385-0.268,0.779-0.365,1.18c-4.188,13.667-6.449,28.17-6.449,43.191C89.097,258.806,91.379,273.379,95.607,287.107z
				 M176.459,131.194c-5.328,12.506-9.769,25.368-13.281,38.482c-13.125,3.428-26.011,7.771-38.52,12.99
				C136.555,160.898,154.608,142.958,176.459,131.194z M128.524,311.339c-1.353-2.159-2.649-4.356-3.874-6.599
				c5.706,2.381,11.489,4.586,17.338,6.599c6.85,2.357,13.79,4.455,20.798,6.295c3.407,13.007,7.717,25.755,12.928,38.19
				C156.435,345.28,140.163,329.903,128.524,311.339z M179.364,300.927c-0.682-3.182-1.322-6.376-1.89-9.587
				c-1.103-6.24-1.992-12.534-2.659-18.88c-0.577-5.493-5.497-9.482-10.99-8.901c-5.493,0.577-9.478,5.497-8.901,10.989
				c0.592,5.637,1.365,11.232,2.278,16.792c0.222,1.355,0.437,2.712,0.678,4.063c-4.168-1.258-8.314-2.6-12.424-4.063
				c-10.843-3.859-21.458-8.455-31.788-13.737c-2.976-10.798-4.575-22.162-4.575-33.893c0-11.736,1.599-23.103,4.578-33.905
				c14.326-7.327,29.218-13.292,44.474-17.878c-0.273,1.479-0.536,2.959-0.786,4.443c-0.918,5.446,2.753,10.605,8.199,11.523
				c0.563,0.095,1.122,0.141,1.674,0.141c4.792,0,9.026-3.457,9.849-8.34c0.75-4.448,1.615-8.874,2.587-13.274
				c13.916-2.96,28.038-4.82,42.217-5.569c6.66-0.351,13.33-0.464,19.999-0.326c17.44,0.361,34.853,2.406,51.962,6.127
				c8.163,37.541,8.216,76.551,0.254,114.059c-23.21,5.07-46.981,7.034-70.619,5.925
				C208.663,305.94,193.902,304.036,179.364,300.927z M273.712,324.651l-71.344,41.19c-7.09-13.981-12.911-28.443-17.427-43.301
				c13.915,2.518,28.007,4.025,42.119,4.468c2.969,0.094,5.938,0.14,8.91,0.14C248.578,327.148,261.197,326.303,273.712,324.651z
				 M377.07,387.781c-0.02,0.331-0.039,0.661-0.065,0.991c-0.044,0.568-0.1,1.134-0.162,1.699c-0.05,0.454-0.106,0.908-0.167,1.36
				c-0.062,0.465-0.126,0.929-0.2,1.391c-0.102,0.634-0.218,1.266-0.341,1.896c-0.057,0.293-0.108,0.587-0.17,0.88
				c-0.638,2.999-1.515,5.941-2.627,8.792c-0.009,0.024-0.019,0.047-0.029,0.071c-0.364,0.929-0.753,1.848-1.166,2.757
				c-0.026,0.057-0.052,0.113-0.078,0.17c-0.407,0.888-0.837,1.766-1.289,2.631c-0.027,0.051-0.053,0.103-0.079,0.154
				c-1.431,2.719-3.085,5.321-4.949,7.774c-0.15,0.197-0.31,0.388-0.463,0.583c-0.437,0.56-0.881,1.113-1.339,1.656
				c-0.279,0.329-0.568,0.65-0.855,0.974c-0.354,0.399-0.71,0.795-1.076,1.184c-0.332,0.353-0.671,0.701-1.014,1.045
				c-0.357,0.359-0.719,0.714-1.086,1.063c-3.14,2.995-6.67,5.675-10.591,7.938l-89.57,51.714
				c-12.891,7.442-27.91,9.42-42.288,5.567c-14.378-3.853-26.397-13.074-33.84-25.967c-15.364-26.612-6.214-60.763,20.398-76.127
				l0.304-0.175l28.516-16.463l41.471-23.944c-0.313,1.004-0.619,2.012-0.893,3.034c-1.412,5.27-2.228,10.603-2.497,15.925
				c-0.081,0.159-0.163,0.317-0.245,0.477c-0.634,1.24-1.252,2.486-1.907,3.718c-0.053,0.1-0.093,0.203-0.142,0.303l-35.518,20.506
				l-20.353,11.752c-8.851,5.109-15.181,13.358-17.826,23.229c-2.645,9.871-1.287,20.181,3.823,29.031
				c7.079,12.26,19.963,19.121,33.197,19.121c6.486,0,13.055-1.648,19.064-5.118l83.061-47.955l6.374-3.68
				c0.59-0.321,1.782-1.018,3.294-2.117c0.151-0.108,0.298-0.221,0.448-0.331c0.133-0.1,0.267-0.202,0.404-0.308
				c3.506-2.66,6.446-5.844,8.773-9.379c0.5-0.743,0.992-1.51,1.462-2.328c0.172-0.299,0.314-0.61,0.452-0.921
				c5.9-11.241,6.107-25.173-0.696-36.956c-3.304-5.723-7.874-10.268-13.152-13.489l16.491-9.521
				c4.586,3.961,8.596,8.74,11.792,14.275c4.564,7.905,6.959,16.475,7.38,25.02v0.006c0.027,0.554,0.044,1.107,0.054,1.661
				c0.009,0.666,0.017,1.332,0.005,1.996c0.004,0.151,0.007,0.303,0.003,0.453C377.147,386.46,377.11,387.121,377.07,387.781z
				 M280.993,407.892c3.117,5.398,6.831,10.296,11.069,14.692l-51.038,29.467c-8.719,5.036-19.908,2.036-24.942-6.684
				c-2.438-4.224-3.086-9.145-1.824-13.854c1.262-4.711,4.283-8.648,8.507-11.087l51.012-29.452
				C275.468,396.815,277.875,402.492,280.993,407.892z M328.484,367.683c3.576,1.487,6.711,4.109,8.792,7.714
				c2.086,3.614,2.774,7.648,2.266,11.497c-3.637-1.508-6.725-4.178-8.779-7.737C328.733,375.641,327.964,371.642,328.484,367.683z
				 M375.978,331.968l51.039-29.467c8.72-5.034,19.907-2.036,24.941,6.684c5.034,8.72,2.036,19.908-6.684,24.942l-51.038,29.467
				c-1.666-5.795-4.042-11.482-7.19-16.932C383.899,341.21,380.163,336.308,375.978,331.968z M489.977,332.738
				c-3.853,14.378-13.074,26.396-25.966,33.84l-70.334,40.606c0.472-1.506,0.886-3.03,1.263-4.563
				c0.106-0.426,0.212-0.853,0.311-1.28c0.12-0.525,0.233-1.052,0.342-1.58c0.138-0.664,0.265-1.33,0.385-1.998
				c0.063-0.355,0.131-0.708,0.19-1.064c0.379-2.29,0.651-4.599,0.818-6.921c0.115-1.594,0.191-3.194,0.204-4.797l58.084-33.536
				c18.269-10.548,24.551-33.993,14.002-52.263c-10.548-18.27-33.991-24.551-52.26-14.002l-50.569,29.196l-7.551,4.359
				l-21.503,12.414l-9.95,5.745c-4.443,2.565-8.17,5.896-11.125,9.727c-5.391,6.987-8.197,15.642-7.985,24.398
				c0.015,0.602,0.044,1.204,0.088,1.807c0.401,5.585,2.036,11.165,5.018,16.33c3.228,5.591,7.802,10.19,13.174,13.477
				l-13.325,7.693l-3.204,1.85c-4.68-4.043-8.628-8.829-11.779-14.284c-3.123-5.41-5.271-11.197-6.442-17.15
				c-0.013-0.064-0.027-0.127-0.04-0.191c-1.481-7.67-1.316-15.614,0.541-23.405c0.123-0.514,0.236-1.03,0.373-1.542
				c2.547-9.504,7.451-17.964,14.197-24.766c0.054-0.055,0.107-0.11,0.162-0.164c3.422-3.421,7.305-6.425,11.607-8.909
				l19.238-11.107l11.313-6.532l0.514-0.296l28.048-16.193l30.46-17.585c8.588-4.958,18.117-7.49,27.774-7.49
				c4.84,0,9.714,0.637,14.514,1.923c14.378,3.853,26.396,13.073,33.84,25.966C491.852,303.342,493.829,318.36,489.977,332.738z"/>
			<path d="M52.848,119.144h77.388c5.523,0,10-4.478,10-10s-4.477-10-10-10H52.848c-5.523,0-10,4.478-10,10
				S47.326,119.144,52.848,119.144z"/>
			<path d="M84.326,164.635H52.848c-5.523,0-10,4.478-10,10s4.477,10,10,10h31.478c5.522,0,10-4.478,10-10
				S89.849,164.635,84.326,164.635z"/>
			<path d="M71.772,230.125H52.848c-5.523,0-10,4.478-10,10s4.477,10,10,10h18.923c5.523,0,10-4.478,10-10
				S77.294,230.125,71.772,230.125z"/>
			<path d="M169.143,228.18c-0.55-0.359-1.13-0.67-1.73-0.92c-0.6-0.25-1.23-0.45-1.87-0.569c-1.29-0.261-2.62-0.261-3.91,0
				c-0.64,0.119-1.27,0.319-1.87,0.569c-0.6,0.25-1.18,0.561-1.73,0.92c-0.54,0.36-1.06,0.78-1.52,1.24
				c-1.86,1.86-2.92,4.44-2.92,7.07c0,0.649,0.06,1.31,0.19,1.95c0.13,0.64,0.32,1.27,0.57,1.869c0.25,0.61,0.56,1.19,0.92,1.73
				c0.36,0.55,0.78,1.06,1.24,1.52c0.46,0.46,0.98,0.881,1.52,1.24c0.55,0.36,1.13,0.67,1.73,0.92c0.6,0.25,1.23,0.44,1.87,0.57
				c0.64,0.13,1.3,0.2,1.95,0.2c2.64,0,5.22-1.07,7.07-2.931c0.47-0.46,0.88-0.97,1.25-1.52c0.36-0.54,0.67-1.12,0.92-1.73
				c0.25-0.6,0.44-1.229,0.57-1.869c0.13-0.641,0.19-1.301,0.19-1.95c0-2.63-1.06-5.21-2.92-7.07
				C170.203,228.961,169.683,228.541,169.143,228.18z"/>
		</g>
	</g>
</g>
<g>
</g>
<g>
</g>
<g>
</g>
<g>
</g>
<g>
</g>
<g>
</g>
<g>
</g>
<g>
</g>
<g>
</g>
<g>
</g>
<g>
</g>
<g>
</g>
<g>
</g>
<g>
</g>
<g>
</g>
</svg>
